<svg id="Layer_1" data-name="Layer 1" xmlns="http://www.w3.org/2000/svg" xmlns:xlink="http://www.w3.org/1999/xlink" viewBox="0 0 650.16 120"><defs><style>.cls-1{opacity:0;}.cls-2{fill:url(#linear-gradient);}.cls-3{fill:url(#linear-gradient-2);}</style><linearGradient id="linear-gradient" x1="110.88" y1="39.41" x2="35.57" y2="114.72" gradientUnits="userSpaceOnUse"><stop offset="0" stop-color="#33ccae"/><stop offset="0.04" stop-color="#2fc7ae"/><stop offset="0.25" stop-color="#1aaeac"/><stop offset="0.48" stop-color="#0c9dab"/><stop offset="0.72" stop-color="#0392aa"/><stop offset="1" stop-color="#008faa"/></linearGradient><linearGradient id="linear-gradient-2" x1="199.62" y1="58.72" x2="646.97" y2="58.72" xlink:href="#linear-gradient"/></defs><title>logo_V3</title><g class="cls-1"><rect width="650.16" height="120"/></g><path class="cls-2" d="M147.93,113.76C118,115.33,101.85,109,92.05,99,70.17,76.76,80,36.32,38.74,25.25a93.92,93.92,0,0,0-22.26-2.83A53.82,53.82,0,0,1,102,33.32l0,0,2.58,5.2C140.39,110.31,147.93,113.76,147.93,113.76ZM63.1,44.81c-5.5-7.58-13.43-13.74-26.21-17.06A93.52,93.52,0,0,0,14.8,25.1a53.84,53.84,0,0,0,26,85.81l.06,0c-25.14-29.41.33-72.44,22.28-66Zm7.81,16.08-.4-.19a13,13,0,0,1-.66,2,13.53,13.53,0,0,1-12.46,8.26,13.68,13.68,0,0,1-2.31-.2A13.5,13.5,0,0,1,44.34,53.89c-8,9.6-13.44,21.5-11.16,35.47,1.37,7,4.77,14.43,10.9,22.15l.54.66h0a54,54,0,0,0,45.93-11.12h0C81,93.71,70.32,69.41,70.91,60.89Z"/><path class="cls-3" d="M329,33.08a26.78,26.78,0,0,1,10.5,10.45,31.16,31.16,0,0,1,3.81,15.57,31.4,31.4,0,0,1-3.81,15.62A26.6,26.6,0,0,1,329,85.23a30.87,30.87,0,0,1-15.19,3.7q-11.76,0-18.62-7.84v28.2h-13.6V30h12.95v7.62a21,21,0,0,1,8.33-6.21,28.1,28.1,0,0,1,10.94-2.07A31,31,0,0,1,329,33.08Zm-4.36,39.19c3.23-3.33,4.85-7.73,4.85-13.17s-1.62-9.83-4.85-13.17a16.45,16.45,0,0,0-12.36-5,17.56,17.56,0,0,0-8.81,2.23,16.14,16.14,0,0,0-6.21,6.37A19.53,19.53,0,0,0,295,59.1a19.53,19.53,0,0,0,2.29,9.58,16.14,16.14,0,0,0,6.21,6.37,17.46,17.46,0,0,0,8.81,2.23A16.45,16.45,0,0,0,324.68,72.27Zm79-39.19a26.74,26.74,0,0,1,10.51,10.45A31.16,31.16,0,0,1,418,59.1a31.4,31.4,0,0,1-3.81,15.62,26.57,26.57,0,0,1-10.51,10.51,30.8,30.8,0,0,1-15.18,3.7q-11.76,0-18.62-7.84v28.2H356.3V30h13v7.62a21,21,0,0,1,8.33-6.21,28.1,28.1,0,0,1,10.94-2.07A30.91,30.91,0,0,1,403.71,33.08Zm-4.35,39.19c3.23-3.33,4.85-7.73,4.85-13.17s-1.62-9.83-4.85-13.17a16.45,16.45,0,0,0-12.36-5,17.56,17.56,0,0,0-8.81,2.23A16.07,16.07,0,0,0,372,49.52a19.53,19.53,0,0,0-2.29,9.58A19.53,19.53,0,0,0,372,68.68a16.07,16.07,0,0,0,6.21,6.37A17.46,17.46,0,0,0,387,77.28,16.45,16.45,0,0,0,399.36,72.27ZM431,7.39h13.6V88.17H431Zm41.69,77.73a27.8,27.8,0,0,1-11.05-10.61,30,30,0,0,1-4-15.41,29.69,29.69,0,0,1,4-15.35,27.88,27.88,0,0,1,11.05-10.56,35.27,35.27,0,0,1,31.89,0,27.82,27.82,0,0,1,11.05,10.56,29.69,29.69,0,0,1,4,15.35,30,30,0,0,1-4,15.41,27.74,27.74,0,0,1-11.05,10.61,35.27,35.27,0,0,1-31.89,0ZM501,72.27q4.9-5,4.9-13.17T501,45.93a16.61,16.61,0,0,0-12.41-5,16.41,16.41,0,0,0-12.35,5q-4.85,5-4.85,13.17c0,5.44,1.62,9.84,4.85,13.17a16.41,16.41,0,0,0,12.35,5A16.61,16.61,0,0,0,501,72.27ZM585.46,30,558.24,92.85q-3.81,9.47-9.25,13.34a22.21,22.21,0,0,1-13.17,3.86,26.83,26.83,0,0,1-8.6-1.42,19.06,19.06,0,0,1-7-3.91l5.44-10a15,15,0,0,0,4.63,2.94,14.07,14.07,0,0,0,5.39,1.09,9.27,9.27,0,0,0,5.93-1.85,16.32,16.32,0,0,0,4.3-6.21l1-2.28L521.56,30h14.15L554,73l18.4-43Zm61.29,33.42H601.14a15.73,15.73,0,0,0,6.26,10.17A20.45,20.45,0,0,0,620,77.39a21.19,21.19,0,0,0,15.79-6.31l7.29,8.38a24.51,24.51,0,0,1-9.91,7.07,39.22,39.22,0,0,1-30.37-1.41A27.5,27.5,0,0,1,591.5,74.51a30,30,0,0,1-4-15.41,30.45,30.45,0,0,1,3.86-15.29,27.39,27.39,0,0,1,10.73-10.62,31.26,31.26,0,0,1,15.45-3.81,30.42,30.42,0,0,1,15.19,3.76A26.48,26.48,0,0,1,643.21,43.7,31.94,31.94,0,0,1,647,59.43C647,60.37,646.89,61.71,646.75,63.46ZM606.52,44.13A16.26,16.26,0,0,0,601,54.42h33a16,16,0,0,0-5.33-10.23,16.25,16.25,0,0,0-11.11-3.92A16.47,16.47,0,0,0,606.52,44.13ZM258.17,49.88l12.9,38.06H255L252,79.25a29.64,29.64,0,0,1-23.19,10.47,28.9,28.9,0,0,1-17.1-5.34A29,29,0,0,1,199.63,60a29.58,29.58,0,0,1,5.85-17.09,31.83,31.83,0,0,1,25-12.74,28.58,28.58,0,0,1,17.09,5.4A28.25,28.25,0,0,1,258.17,49.88Zm-18.3,20.63a14.49,14.49,0,0,0,4.67-10.45,13.69,13.69,0,0,0-6.07-12.18A14.65,14.65,0,0,0,230,45.31a14.23,14.23,0,0,0-12.29,6.26,15,15,0,0,0-2.93,8.49,13.4,13.4,0,0,0,6.07,12.06,14,14,0,0,0,8.36,2.69,14.87,14.87,0,0,0,10.66-4.3"/></svg>